<svg xmlns="http://www.w3.org/2000/svg" width="24" height="24" viewBox="0 0 24 24" fill="none" stroke="#999999" stroke-width="2" stroke-linecap="round" stroke-linejoin="round">
  <path d="M16 4H18C18.5304 4 19.0391 4.21071 19.4142 4.58579C19.7893 4.96086 20 5.46957 20 6V20C20 20.5304 19.7893 21.0391 19.4142 21.4142C19.0391 21.7893 18.5304 22 18 22H6C5.46957 22 4.96086 21.7893 4.58579 21.4142C4.21071 21.0391 4 20.5304 4 20V6C4 5.46957 4.21071 4.96086 4.58579 4.58579C4.96086 4.21071 5.46957 4 6 4H8"/>
  <rect x="8" y="2" width="8" height="4" rx="1" ry="1"/>
  <line x1="8" y1="10" x2="16" y2="10"/>
  <line x1="8" y1="14" x2="16" y2="14"/>
  <line x1="8" y1="18" x2="12" y2="18"/>
</svg>
